<svg width="107" height="38" viewBox="0 0 107 38" fill="none" xmlns="http://www.w3.org/2000/svg">
<path d="M25.872 3.736L25.104 9.784H16.896V37H9.024V9.784H0.432V3.736H25.872ZM43.8259 10.696C46.0339 10.696 47.7619 11.368 49.0099 12.712C50.2579 14.056 50.8819 15.944 50.8819 18.376V37H43.2979V19.672C43.2979 18.392 43.0899 17.512 42.6739 17.032C42.2579 16.52 41.6659 16.264 40.8979 16.264C39.3619 16.264 37.8899 17.352 36.4819 19.528V37H28.8979V1.384L36.4819 0.615999V14.248C37.5379 13.064 38.6579 12.184 39.8419 11.608C41.0259 11 42.3539 10.696 43.8259 10.696ZM78.825 23.752C78.825 24.808 78.777 25.72 78.681 26.488H62.889C63.145 28.632 63.753 30.136 64.713 31C65.673 31.864 67.001 32.296 68.697 32.296C69.721 32.296 70.713 32.12 71.673 31.768C72.633 31.384 73.673 30.808 74.793 30.04L77.913 34.264C74.937 36.632 71.625 37.816 67.977 37.816C63.849 37.816 60.681 36.6 58.473 34.168C56.265 31.736 55.161 28.472 55.161 24.376C55.161 21.784 55.625 19.464 56.553 17.416C57.481 15.336 58.841 13.704 60.633 12.52C62.425 11.304 64.569 10.696 67.065 10.696C70.745 10.696 73.625 11.848 75.705 14.152C77.785 16.456 78.825 19.656 78.825 23.752ZM71.385 21.592C71.321 17.688 69.945 15.736 67.257 15.736C65.945 15.736 64.921 16.216 64.185 17.176C63.481 18.136 63.049 19.72 62.889 21.928H71.385V21.592ZM94.1254 10.696C98.0294 10.696 101.085 11.896 103.293 14.296C105.501 16.664 106.605 19.992 106.605 24.28C106.605 27 106.093 29.384 105.069 31.432C104.077 33.448 102.637 35.016 100.749 36.136C98.8934 37.256 96.6854 37.816 94.1254 37.816C90.2534 37.816 87.1974 36.632 84.9574 34.264C82.7494 31.864 81.6454 28.52 81.6454 24.232C81.6454 21.512 82.1414 19.144 83.1334 17.128C84.1574 15.08 85.5974 13.496 87.4534 12.376C89.3414 11.256 91.5654 10.696 94.1254 10.696ZM94.1254 16.264C92.5894 16.264 91.4374 16.92 90.6694 18.232C89.9014 19.512 89.5174 21.512 89.5174 24.232C89.5174 27.016 89.8854 29.048 90.6214 30.328C91.3894 31.608 92.5574 32.248 94.1254 32.248C95.6614 32.248 96.8134 31.608 97.5814 30.328C98.3494 29.016 98.7334 27 98.7334 24.28C98.7334 21.496 98.3494 19.464 97.5814 18.184C96.8454 16.904 95.6934 16.264 94.1254 16.264Z" fill="#141414"/>
</svg>
